<?xml version="1.0" encoding="UTF-8" standalone="no"?>
<svg
   fill="none"
   viewBox="0 0 37 37"
   version="1.1"
   id="svg26"
   sodipodi:docname="favicon_mono.svg"
   inkscape:version="1.2.2 (b0a8486541, 2022-12-01)"
   xmlns:inkscape="http://www.inkscape.org/namespaces/inkscape"
   xmlns:sodipodi="http://sodipodi.sourceforge.net/DTD/sodipodi-0.dtd"
   xmlns="http://www.w3.org/2000/svg"
   xmlns:svg="http://www.w3.org/2000/svg">
  <defs
     id="defs30" />
  <sodipodi:namedview
     id="namedview28"
     pagecolor="#505050"
     bordercolor="#eeeeee"
     borderopacity="1"
     inkscape:showpageshadow="0"
     inkscape:pageopacity="0"
     inkscape:pagecheckerboard="0"
     inkscape:deskcolor="#505050"
     showgrid="false"
     inkscape:zoom="27.756757"
     inkscape:cx="6.1786757"
     inkscape:cy="18.067673"
     inkscape:window-width="3840"
     inkscape:window-height="2123"
     inkscape:window-x="0"
     inkscape:window-y="0"
     inkscape:window-maximized="1"
     inkscape:current-layer="svg26" />
  <path
     style="fill:#a2a2a2;fill-opacity:1"
     d="M 26.059014,32.451241 22.808794,34.12734 14.665933,33.515136 8.7572198,29.523445 7.1949506,22.022865 7.3201093,17.368171 20.200239,17.331101 25.965041,29.16085 Z"
     id="path842" />
  <path
     style="fill:#5a5a5a;fill-opacity:1"
     d="M 32.892522,16.391772 32.968236,13.563319 28.841689,5.9160553 21.098598,4.5551949 11.18848,7.8813927 9.4956599,12.389203 0.85637316,12.588133 1.1097162,14.354606 4.1254999,16.884745 30.027132,17.296297 Z"
     id="path3492" />
  <path
     fill="#7f3300"
     d="m 18.985482,17.334059 c 1.529293,3.976495 2.62511,5.386991 4.170958,7.109546 0.309891,0.148635 -0.113366,4.424986 0.671933,5.964975 0.199165,0.497586 0.292737,1.114042 0.900813,1.458225 l 0.06418,2.076641 c 0.155031,1.237421 1.935705,1.014899 2.02106,0.05669 l 0.0773,-1.318307 c 0.04367,0.303323 0.09639,0.729625 0.199404,1.016622 0.314506,1.047244 1.643084,0.594252 1.871322,0.412401 0.147098,-0.117202 0.262007,-0.240303 0.262533,-0.414364 0.124075,0.421764 0.315613,0.462673 0.699646,0.39078 0.03532,0.321662 0.0014,0.460163 0.109385,0.773157 0.311371,0.796873 1.876798,0.995534 2.151674,-0.09123 0.107584,-0.48827 0.0366,-0.968442 0.05346,-1.452597 0.167691,0.878568 2.002521,0.950992 2.041289,-0.444421 0.382492,0.164414 0.972902,0.04002 1.230991,-0.0995 1.139463,-0.02384 0.959562,-0.541266 0.998128,-0.667814 0,0 0.1248,-4.678887 -0.544836,-6.835111 -0.09578,-0.308399 -2.182168,-7.559792 -3.870089,-9.314511 l -0.302192,0.924274 z"
     id="path12"
     sodipodi:nodetypes="ccccccccsccccccccsccc"
     style="fill:#404040;fill-opacity:1" />
  <path
     id="path6"
     style="fill:#000000;fill-opacity:1"
     d="M 22.513672 4 C 21.511156 3.9958463 20.3504 4.0575812 18.898438 4.2246094 C 12.995935 5.3568794 8.1409751 8.941079 8.65625 11.84375 L 1.8808594 11.849609 C -1.2493409 11.771589 0.035372665 15.299267 2.0664062 16.541016 C 3.4110479 17.461801 4.2986704 17.667308 6.2167969 17.892578 C 6.2813024 17.893207 6.360581 17.895792 6.4257812 17.896484 L 6.4492188 19.433594 C 6.5774452 22.021761 6.3769513 24.439511 7.1542969 27.453125 C 8.6060544 33.081314 15.601191 35.030408 21.492188 34.923828 C 22.813349 34.899928 23.790443 34.620455 24.806641 34.003906 C 24.802941 33.982986 24.795699 33.965189 24.792969 33.943359 L 24.736328 32.130859 C 23.891752 32.770871 23.095234 33.209431 21.960938 33.230469 C 16.540498 33.330959 10.04478 32.211134 8.7089844 26.902344 C 7.9937345 24.059752 8.1785316 21.77918 8.0605469 19.337891 L 8.0390625 17.921875 C 11.916848 17.98439 16.593012 18.114993 20.865234 18.193359 C 21.569463 19.007392 22.261803 19.830532 22.921875 20.623047 C 23.862951 21.752949 24.505441 22.941403 25.197266 24.101562 C 26.275558 25.727267 26.906376 27.569928 27.154297 29.501953 L 27.222656 33.695312 C 27.373666 34.644135 28.79692 34.494201 28.84375 33.695312 L 28.671875 29.285156 C 28.517507 27.632239 28.164149 25.87579 26.71875 23.455078 C 26.166763 22.558709 24.972401 20.537433 22.771484 18.232422 C 24.406006 18.255384 25.871103 18.257081 27.214844 18.246094 C 27.708402 18.848826 28.182103 19.447301 28.685547 20.050781 C 29.71068 21.279613 29.861342 21.52394 30.65625 22.884766 C 31.624035 24.75895 31.961066 27.151958 32.208984 29.083984 L 32.277344 33.275391 C 32.428354 34.224211 33.849654 34.07623 33.896484 33.277344 L 33.726562 28.867188 C 33.572197 27.214268 33.334068 24.512506 31.888672 22.091797 C 31.379558 21.265053 30.745772 20.121014 28.980469 18.224609 C 30.076049 18.194278 30.9635 18.139336 31.585938 18.056641 C 33.435244 20.866555 34.26718 24.001849 34.970703 27.865234 L 35.039062 32.056641 C 35.190072 33.005461 36.613326 32.85748 36.660156 32.058594 L 36.488281 27.648438 C 36.253418 25.532222 34.661521 20.099296 33.107422 17.449219 C 33.552126 17.11821 33.874641 16.744711 33.923828 16.53125 C 34.003468 15.691164 33.982788 14.851506 33.892578 14.013672 C 31.935984 6.997191 29.635298 5.0093964 25.869141 4.2558594 C 24.828731 4.1194852 23.802622 4.0053405 22.513672 4 z M 23.736328 5.5605469 C 24.741085 5.56791 25.371744 5.6298434 25.697266 5.71875 C 27.896651 6.1435284 29.285774 7.6591441 30.544922 9.9824219 C 31.182613 11.264426 31.672484 12.313717 32.046875 13.439453 C 32.402941 14.657026 32.222857 15.490268 32.023438 15.728516 C 31.486587 16.544436 21.676811 16.759248 20.845703 16.255859 L 10.71875 11.748047 C 10.277712 11.394628 10.425011 11.044396 10.697266 10.294922 C 11.654563 7.8308307 15.934465 6.2869185 19.527344 5.7324219 C 21.352361 5.6004028 22.731571 5.5531838 23.736328 5.5605469 z M 9.5859375 13.177734 C 10.939975 13.441344 15.235131 15.221225 16.484375 16.136719 C 16.659189 16.292558 16.655726 16.367579 16.666016 16.417969 C 16.639692 16.474709 16.579816 16.489922 16.503906 16.482422 C 16.198494 16.495802 15.5021 16.483175 14.740234 16.484375 C 12.971046 16.487136 10.305959 16.333317 8.6289062 16.351562 C 6.7377393 16.285912 5.0717965 16.498469 3.7089844 15.761719 C 2.8061608 15.267346 2.5034381 14.78991 2.0644531 14.353516 C 1.8914891 14.14088 1.2003552 13.384131 2.1757812 13.363281 L 9.5859375 13.177734 z M 10.875 18.943359 A 0.9375245 0.92686766 0 0 0 9.9375 19.869141 A 0.9375245 0.92686766 0 0 0 10.875 20.796875 A 0.9375245 0.92686766 0 0 0 11.8125 19.869141 A 0.9375245 0.92686766 0 0 0 10.875 18.943359 z M 14.658203 20.289062 A 0.9375245 0.92686766 0 0 0 13.720703 21.216797 A 0.9375245 0.92686766 0 0 0 14.658203 22.142578 A 0.9375245 0.92686766 0 0 0 15.597656 21.216797 A 0.9375245 0.92686766 0 0 0 14.658203 20.289062 z M 11.123047 23.873047 C 10.607728 23.869347 10.256987 24.047971 10.226562 24.669922 C 10.52543 26.540741 12.736328 26.431641 12.736328 26.431641 C 13.981214 26.435741 14.894766 25.757127 14.966797 24.894531 C 14.984877 24.455155 14.740125 24.156333 14.166016 24.117188 C 13.997516 24.109488 13.833987 24.07213 13.404297 24.423828 C 13.227353 24.538831 13.13771 24.581573 12.839844 24.65625 C 12.706115 24.66425 12.487305 24.678823 12.214844 24.552734 C 12.002818 24.405147 11.667682 23.879079 11.123047 23.873047 z " />
</svg>
