<?xml version="1.0" encoding="UTF-8" standalone="no"?>
<svg
   fill="none"
   viewBox="0 0 36.904217 62.158332"
   version="1.1"
   id="svg1201"
   sodipodi:docname="lil-me-up.svg"
   inkscape:version="1.2.1 (9c6d41e410, 2022-07-14, custom)"
   width="44.285061"
   height="74.589996"
   xmlns:inkscape="http://www.inkscape.org/namespaces/inkscape"
   xmlns:sodipodi="http://sodipodi.sourceforge.net/DTD/sodipodi-0.dtd"
   xmlns="http://www.w3.org/2000/svg"
   xmlns:svg="http://www.w3.org/2000/svg"><defs
   id="defs1205" />
<sodipodi:namedview
   id="namedview1203"
   pagecolor="#505050"
   bordercolor="#eeeeee"
   borderopacity="1"
   inkscape:showpageshadow="0"
   inkscape:pageopacity="0"
   inkscape:pagecheckerboard="0"
   inkscape:deskcolor="#505050"
   showgrid="false"
   inkscape:zoom="22.627417"
   inkscape:cx="48.569397"
   inkscape:cy="44.812892"
   inkscape:window-width="3840"
   inkscape:window-height="2111"
   inkscape:window-x="0"
   inkscape:window-y="0"
   inkscape:window-maximized="1"
   inkscape:current-layer="svg1201" />
<path
   fill="#000000"
   d="m 26.394633,28.543421 -13.494644,0.420794 c -0.300646,0.162781 0.05751,0.233892 5.17e-4,0.0072 0.09224,0.485824 0.232661,0.627994 -0.07987,0.706097 -0.831548,0.207806 -2.297019,0.190944 -3.0957985,-0.0067 -1.9522818,-0.45511 -3.4779847,-1.085881 -4.6632648,-2.562635 -1.1479253,-1.585251 -3.0907067,-0.3215 -1.9012417,1.163504 2.3044095,2.753206 4.6373934,3.892359 9.796628,3.708793 0.200073,0.545479 0.732972,2.406023 0.769218,3.263335 0.158109,3.399122 -0.09589,7.924807 -0.157789,11.946469 -0.0108,0.358217 0.294476,0.719376 0.602134,0.966638 -0.06036,4.189448 -0.511792,8.398382 -0.35973,12.512108 -0.02804,1.201972 1.963594,1.435627 2.055012,0.04594 -0.170393,-4.065823 0.320242,-8.068272 0.232067,-12.10233 l 7.128969,-0.03819 c -0.212358,4.0581 0.03872,8.148555 0.07752,12.224131 0.09403,1.162473 1.809495,1.139483 1.93872,-0.002 -0.07069,-4.201449 -0.335556,-8.435537 -0.127663,-12.590037 0.930415,-0.865825 1.916511,-0.761328 2.344967,-10.369812 0.01904,-1.381135 0.258712,-3.116228 0.120427,-4.235557 0.426357,1.27158 1.299033,4.348443 1.807439,6.401073 0.56807,1.547172 2.287786,0.814726 1.978001,-0.571312 -0.403487,-1.820163 -1.077981,-4.439167 -2.195596,-6.990965 -0.593255,-1.49108 -1.517111,-2.790696 -2.776024,-3.896486 z"
   id="path1197"
   style="stroke-width:0.999438"
   sodipodi:nodetypes="cccsccccccccccccccccccccc" />
<path
   fill="#7c0016"
   d="m 15.829688,46.423834 c 0.705461,0.390497 7.64682,0.457864 8.135432,-0.06312 2.566481,-1.592547 1.548725,-9.944399 1.983547,-13.252722 0.174439,-1.395883 -0.196511,-3.139505 -0.63232,-3.345603 l -10.409923,-0.09003 c -0.41113,2.110823 0.199356,3.51562 0.439584,4.724971 0.291396,3.424214 -0.256361,9.954539 0.163568,11.561341 0.07471,0.270257 0.134297,0.398028 0.320112,0.46516 z"
   id="path1199"
   style="stroke-width:0.999438" />
<path
   fill="#000000"
   d="m 6.4193114,13.37388 20.1436026,0.0043 -0.02746,15.295066 c -1.795072,1.541095 -3.01147,2.173908 -5.040283,2.210559 C 15.603121,30.99024 8.6074196,29.043 7.1554023,23.422117 6.3779202,20.412416 6.5778029,17.998222 6.4495536,15.413413"
   id="path2"
   style="stroke-width:0.999438" />
<path
   fill="#ffdead"
   d="m 8.0318926,13.373693 18.5317034,0.003 -0.02407,13.284244 c -1.754882,1.342676 -2.708717,2.496456 -4.575475,2.531028 C 16.542652,29.292317 10.046885,28.17416 8.7108509,22.87226 7.9954732,20.033358 8.1793902,17.756168 8.0613847,15.318046"
   id="path4"
   style="stroke-width:0.999438" />
<path
   fill="#000000"
   d="m 11.813852,15.849195 a 0.93768743,0.92565959 0 0 1 -0.937689,0.92566 0.93768743,0.92565959 0 0 1 -0.9376863,-0.92566 0.93768743,0.92565959 0 0 1 0.9376863,-0.925659 0.93768743,0.92565959 0 0 1 0.937689,0.925659 z"
   id="path6"
   style="stroke-width:0.999438" />
<path
   fill="#000000"
   d="m 15.599401,17.193479 a 0.93768743,0.92565959 0 0 1 -0.937687,0.92566 0.93768743,0.92565959 0 0 1 -0.937689,-0.92566 0.93768743,0.92565959 0 0 1 0.937689,-0.92566 0.93768743,0.92565959 0 0 1 0.937687,0.92566 z"
   id="path8"
   style="stroke-width:0.999438" />
<path
   fill="#000000"
   d="m 10.229134,20.643058 c 0.29892,1.868385 2.510325,1.758618 2.510325,1.758618 1.245104,0.0041 2.157985,-0.673121 2.230029,-1.534594 0.01808,-0.438806 -0.227666,-0.73787 -0.801876,-0.776966 -0.16853,-0.0077 -0.330961,-0.04326 -0.760727,0.307976 -0.176975,0.114853 -0.266063,0.157522 -0.563982,0.232102 -0.133753,0.008 -0.354032,0.02139 -0.626542,-0.104533 -0.212063,-0.147396 -0.546459,-0.672499 -1.091191,-0.678523 -0.515409,-0.0037 -0.865605,0.17478 -0.896036,0.79592 z"
   id="path10"
   style="stroke-width:0.999438" />
<path
   fill="#7f3300"
   d="m 18.988781,13.31668 c 1.529559,3.971312 2.625567,5.379969 4.171683,7.100279 0.309945,0.148441 -0.113385,4.419219 0.67205,5.9572 0.1992,0.496938 0.292788,1.11259 0.90097,1.456325 l 0.06419,2.073934 c 0.155058,1.235808 1.936041,1.013576 2.021411,0.05662 l 0.07731,-1.316589 c 0.04368,0.302928 0.09641,0.728674 0.199439,1.015297 0.314561,1.045879 1.64337,0.593478 1.871647,0.411864 0.147124,-0.117049 0.262053,-0.23999 0.262579,-0.413824 0.124096,0.421214 0.315668,0.46207 0.699767,0.390271 0.03533,0.321242 0.0014,0.459563 0.109404,0.772149 0.311426,0.795834 1.877125,0.994236 2.152048,-0.09111 0.107603,-0.487634 0.03661,-0.96718 0.05347,-1.450704 0.16772,0.877423 2.002869,0.949753 2.041643,-0.443842 0.382559,0.1642 0.973071,0.03997 1.231205,-0.09937 1.139661,-0.02381 0.959729,-0.540561 0.998302,-0.666944 0,0 0.124821,-4.672788 -0.544931,-6.826202 -0.0958,-0.307997 -2.182547,-7.549938 -3.870761,-9.30237 z"
   id="path12"
   style="stroke-width:0.999438" />
<path
   fill="#562200"
   d="m 27.226992,29.655738 -0.06828,-4.186688 c -0.247964,-1.929513 -0.878334,-3.770872 -1.956816,-5.394461 -0.691945,-1.158653 -1.33557,-2.345356 -2.276813,-3.473789 -0.812754,-0.974391 -1.66607,-1.998072 -2.541676,-2.989376 l 1.874187,0.07477 c 2.53611,2.518415 3.871043,4.780855 4.465111,5.744134 1.445653,2.417563 1.799422,4.171582 1.953817,5.822351 l 0.171441,4.40457 c -0.04684,0.797847 -1.469933,0.946088 -1.620969,-0.0015 z"
   id="path14"
   style="stroke-width:0.999438" />
<path
   fill="#562200"
   d="m 32.282087,29.23774 -0.06828,-4.186687 c -0.247964,-1.929514 -0.584334,-4.319267 -1.55229,-6.191014 -0.79505,-1.359055 -0.94535,-1.603708 -1.970664,-2.830941 -0.813531,-0.973744 -1.543196,-1.929855 -2.418802,-2.921159 l 1.739194,0.09133 c 2.53611,2.518414 3.288234,3.906277 3.882303,4.869555 1.445653,2.417562 1.683674,5.115093 1.838069,6.765861 l 0.171442,4.40457 c -0.04684,0.797848 -1.469934,0.946088 -1.62097,-0.0015 z"
   id="path16"
   style="stroke-width:0.999438" />
<path
   fill="#562200"
   d="m 35.045697,28.020053 -0.06828,-4.186688 c -0.88023,-4.826619 -1.957148,-8.514973 -4.982551,-11.852603 l 1.882823,0.02838 c 1.819434,0.863685 4.318612,8.918405 4.617536,11.607853 l 0.171442,4.404569 c -0.04684,0.797848 -1.469933,0.946089 -1.62097,-0.0015 z"
   id="path18"
   style="stroke-width:0.999438" />
<path
   fill="#000000"
   d="m 6.2171993,13.874505 c 8.6822497,0.08455 23.7274917,0.750819 26.0632337,0.0346 0.836949,-0.339598 1.57228,-1.063067 1.648902,-1.395097 0.07965,-0.838996 0.05859,-1.676658 -0.03164,-2.513405 C 31.940751,2.9932371 29.640237,1.0077283 25.873406,0.25516952 24.023458,0.01304152 22.220257,-0.15717234 18.900887,0.22411006 12.997338,1.3549102 8.1429879,4.9340591 8.6583548,7.8329613 l -6.7772392,0.00689 c -3.1307598,-0.077918 -1.84596373,3.4447787 0.1854332,4.6849137 1.3448819,0.91959 2.2321811,1.124757 4.1506505,1.349734 z"
   id="path20"
   style="stroke-width:0.999438" />
<path
   fill="#6d6672"
   d="M 16.486998,12.120746 C 15.237532,11.206441 10.942607,9.429238 9.5883291,9.1659716 L 2.1754547,9.3517861 c -0.9756005,0.020823 -0.2844514,0.7764199 -0.1114564,0.9887789 0.4390633,0.43583 0.7424931,0.912807 1.6454781,1.406536 1.363056,0.735795 3.0300996,0.522051 4.9216047,0.58762 1.6773539,-0.01823 4.3419349,0.135831 6.1114409,0.133073 0.761998,-0.0012 1.458174,0.01087 1.763644,-0.0025 0.07592,0.0075 0.136736,-0.0069 0.163064,-0.06356 -0.01029,-0.05032 -0.0074,-0.125422 -0.182245,-0.281058 z"
   id="path22"
   style="stroke-width:0.999438" />
<path
   fill="#6d6672"
   d="M 20.848552,12.239033 10.720374,7.7371004 C 10.279259,7.384142 10.427028,7.0349527 10.69933,6.2864516 c 0.957467,-2.4608888 5.238288,-4.0023541 8.831804,-4.5561303 3.650685,-0.2636949 5.519506,-0.1912245 6.170662,-0.013642 2.199779,0.4242263 3.589214,1.9375443 4.848585,4.2578032 0.637806,1.2803375 1.127729,2.3279513 1.502185,3.452224 0.356128,1.2159895 0.176184,2.0492815 -0.02327,2.2872185 -0.536944,0.814861 -10.349487,1.027841 -11.180743,0.525108 z"
   id="path24"
   style="stroke-width:0.999438" />





/&gt;</svg>
