<?xml version="1.0" encoding="UTF-8" standalone="no"?>
<svg
   fill="none"
   viewBox="0 0 71 37"
   width="1278"
   height="666"
   version="1.1"
   id="svg26"
   sodipodi:docname="meta_img.svg"
   inkscape:version="1.2.1 (9c6d41e410, 2022-07-14, custom)"
   xmlns:inkscape="http://www.inkscape.org/namespaces/inkscape"
   xmlns:sodipodi="http://sodipodi.sourceforge.net/DTD/sodipodi-0.dtd"
   xmlns="http://www.w3.org/2000/svg"
   xmlns:svg="http://www.w3.org/2000/svg">
  <defs
     id="defs30" />
  <sodipodi:namedview
     id="namedview28"
     pagecolor="#505050"
     bordercolor="#eeeeee"
     borderopacity="1"/>
  <path
     fill="#000000"
     d="m 23.688466,17.391334 20.140103,0.0043 -0.02746,15.315027 c -1.79476,1.543106 -3.010946,2.176745 -5.039407,2.213444 -5.891022,0.10658 -12.885508,-1.843201 -14.337273,-7.47142 -0.777347,-3.013629 -0.577499,-5.430974 -0.705726,-8.019156"
     id="path2" />
  <path
     fill="#ffdead"
     d="m 25.300767,17.391147 18.528483,0.003 -0.02406,13.301581 c -1.754577,1.344428 -2.708247,2.499714 -4.57468,2.534331 C 33.810048,33.330546 27.315409,32.21093 25.979607,26.90211 25.264354,24.059503 25.448239,21.779341 25.330254,19.338037"
     id="path4" />
  <path
     fill="#000000"
     d="m 29.082069,19.86988 a 0.9375245,0.92686766 0 0 1 -0.937526,0.926868 0.9375245,0.92686766 0 0 1 -0.937523,-0.926868 0.9375245,0.92686766 0 0 1 0.937523,-0.926867 0.9375245,0.92686766 0 0 1 0.937526,0.926867 z"
     id="path6" />
  <path
     fill="#000000"
     d="m 32.866961,21.215918 a 0.9375245,0.92686766 0 0 1 -0.937525,0.926868 0.9375245,0.92686766 0 0 1 -0.937526,-0.926868 0.9375245,0.92686766 0 0 1 0.937526,-0.926868 0.9375245,0.92686766 0 0 1 0.937525,0.926868 z"
     id="path8" />
  <path
     fill="#000000"
     d="m 27.497627,24.669999 c 0.298868,1.870823 2.509888,1.760913 2.509888,1.760913 1.244888,0.0041 2.157611,-0.673999 2.229642,-1.536597 0.01808,-0.439378 -0.227626,-0.738833 -0.801737,-0.77798 -0.1685,-0.0077 -0.330903,-0.04332 -0.760595,0.308378 -0.176944,0.115003 -0.266016,0.157728 -0.563884,0.232405 -0.133729,0.008 -0.35397,0.02142 -0.626433,-0.104669 -0.212026,-0.147589 -0.546364,-0.673377 -1.091001,-0.679409 -0.515319,-0.0037 -0.865455,0.175008 -0.89588,0.796959 z"
     id="path10" />
  <path
     fill="#7f3300"
     d="m 36.255752,17.334059 c 1.529293,3.976495 2.62511,5.386991 4.170958,7.109546 0.309891,0.148635 -0.113366,4.424986 0.671933,5.964975 0.199165,0.497586 0.292737,1.114042 0.900813,1.458225 l 0.06418,2.076641 c 0.155031,1.237421 1.935705,1.014899 2.02106,0.05669 l 0.0773,-1.318307 c 0.04367,0.303323 0.09639,0.729625 0.199404,1.016622 0.314506,1.047244 1.643084,0.594252 1.871322,0.412401 0.147098,-0.117202 0.262007,-0.240303 0.262533,-0.414364 0.124075,0.421764 0.315613,0.462673 0.699646,0.39078 0.03532,0.321662 0.0014,0.460163 0.109385,0.773157 0.311371,0.796873 1.876798,0.995534 2.151674,-0.09123 0.107584,-0.48827 0.0366,-0.968442 0.05346,-1.452597 0.167691,0.878568 2.002521,0.950992 2.041289,-0.444421 0.382492,0.164414 0.972902,0.04002 1.230991,-0.0995 1.139463,-0.02384 0.959562,-0.541266 0.998128,-0.667814 0,0 0.1248,-4.678887 -0.544836,-6.835111 -0.09578,-0.308399 -2.182168,-7.559792 -3.870089,-9.314511 z"
     id="path12" />
  <path
     fill="#562200"
     d="m 44.492531,33.694441 -0.06827,-4.192152 C 44.17634,27.570258 43.54608,25.726496 42.467785,24.100788 41.77596,22.940623 41.132447,21.752371 40.191368,20.622466 39.378755,19.646803 38.525587,18.621786 37.650133,17.629188 l 1.873862,0.07487 c 2.535669,2.521701 3.87037,4.787094 4.464335,5.75163 1.445402,2.420718 1.799109,4.177027 1.953477,5.82995 l 0.171412,4.410318 c -0.04683,0.798889 -1.469678,0.947323 -1.620688,-0.0015 z"
     id="path14" />
  <path
     fill="#562200"
     d="m 49.546748,33.275898 -0.06827,-4.192151 c -0.247921,-1.932032 -0.584233,-4.324904 -1.552021,-6.199094 -0.794911,-1.360829 -0.945185,-1.605801 -1.970321,-2.834636 -0.81339,-0.975014 -1.542928,-1.932373 -2.418382,-2.924971 l 1.738892,0.09145 c 2.535669,2.521701 3.287663,3.911375 3.881628,4.87591 1.445402,2.420718 1.683382,5.121769 1.83775,6.774692 l 0.171412,4.410318 c -0.04683,0.798889 -1.469678,0.947323 -1.620688,-0.0015 z"
     id="path16" />
  <path
     fill="#562200"
     d="M 52.309878,32.056622 52.241608,27.86447 C 51.361532,23.031552 50.284802,19.338384 47.259924,15.996398 l 1.882496,0.02842 c 1.819118,0.864812 4.317862,8.930044 4.616734,11.623002 l 0.171412,4.410318 c -0.04683,0.798889 -1.469678,0.947323 -1.620688,-0.0015 z"
     id="path18" />
  <path
     fill="#000000"
     d="m 23.486389,17.892612 c 8.680741,0.08466 23.723369,0.751799 26.058705,0.03465 0.836804,-0.340042 1.572007,-1.064455 1.648616,-1.396918 0.07964,-0.840091 0.05858,-1.678846 -0.03163,-2.516685 -1.956604,-7.0165155 -4.256718,-9.0046155 -8.022895,-9.7581565 -1.849626,-0.242444 -3.652514,-0.41288 -6.971307,-0.0311 -5.902528,1.132276 -10.756035,4.716096 -10.240758,7.6187815 l -6.776061,0.0069 c -3.130216,-0.07802 -1.845643,3.449274 0.185401,4.691028 1.344648,0.92079 2.231793,1.126225 4.149929,1.351495 z"
     id="path20" />
  <path
     fill="#6d6672"
     d="m 33.754403,16.136565 c -1.249249,-0.915499 -5.543427,-2.695021 -6.89747,-2.958631 l -7.411586,0.186057 c -0.975431,0.02085 -0.284402,0.777433 -0.111437,0.990069 0.438987,0.436399 0.742364,0.913999 1.645192,1.408372 1.362819,0.736755 3.029573,0.522732 4.920749,0.588387 1.677063,-0.01825 4.341181,0.136008 6.110379,0.133247 0.761866,-0.0012 1.457921,0.01088 1.763338,-0.0025 0.07591,0.0075 0.136712,-0.0069 0.163036,-0.06364 -0.01029,-0.05039 -0.0074,-0.125585 -0.182214,-0.281424 z"
     id="path22" />
  <path
     fill="#6d6672"
     d="M 38.115199,16.255006 27.988781,11.747198 c -0.441038,-0.353419 -0.293295,-0.703064 -0.02104,-1.452542 0.957301,-2.4641005 5.237378,-4.0075775 8.830269,-4.5620765 3.650051,-0.264039 5.518547,-0.191474 6.16959,-0.01366 2.199397,0.42478 3.588591,1.940073 4.847743,4.26336 0.637695,1.2820085 1.127533,2.3309895 1.501924,3.4567295 0.356066,1.217577 0.176153,2.051956 -0.02327,2.290204 -0.536851,0.815924 -10.347689,1.029182 -11.178801,0.525793 z"
     id="path24" />
</svg>
