<svg xmlns="http://www.w3.org/2000/svg" width="32" height="32" fill="none"><clipPath id="a"><path d="M0 0h32v32H0z"/></clipPath><g clip-path="url(#a)"><path fill="#fbc546" stroke="#000" stroke-width="1.794" d="M31.103 20.993c0 2.009-.525 3.435-1.345 4.474-.827 1.05-2.016 1.784-3.476 2.29-2.961 1.029-6.772 1.039-10.182 1.039s-7.273-.01-10.287-1.04c-1.487-.508-2.701-1.244-3.546-2.296-.835-1.04-1.37-2.463-1.37-4.468 0-3.748.807-8.31 3.108-11.903 2.267-3.541 6.013-6.2 12.095-6.2 5.765 0 9.469 2.664 11.771 6.232 2.331 3.613 3.232 8.18 3.232 11.872z"/><g fill-rule="evenodd" clip-rule="evenodd"><path fill="#593604" d="M19.455 22.413a.853.853 0 0 1 0 1.706h-6.826a.853.853 0 0 1 0-1.706z"/><path fill="#ed6b44" d="M27.133 19.853c0-.943-.764-1.706-1.706-1.706h-3.413a1.706 1.706 0 1 0 0 3.412h3.413c.942 0 1.706-.763 1.706-1.706m-15.357 0c0-.943-.764-1.706-1.706-1.706H6.657a1.706 1.706 0 1 0 0 3.412h3.413c.942 0 1.706-.763 1.706-1.706"/><path fill="#fff" d="M6.498 19a3.84 3.84 0 0 0 3.837-3.838v-.855a3.84 3.84 0 0 0-3.839-3.839h-.001a3.84 3.84 0 0 0-3.838 3.838v.855A3.84 3.84 0 0 0 6.497 19z"/><path fill="#000" d="M5.217 14.726c0-.938.76-1.698 1.697-1.698h.017c.938 0 1.698.76 1.698 1.698v.002c0 .938-.76 1.698-1.698 1.698h-.017c-.937 0-1.697-.76-1.697-1.698z"/><path fill="#fff" d="M25.586 19a3.84 3.84 0 0 1-3.837-3.838v-.856a3.84 3.84 0 0 1 3.837-3.838h.003a3.84 3.84 0 0 1 3.837 3.838v.855A3.84 3.84 0 0 1 25.588 19z"/><path fill="#000" d="M26.867 14.726c0-.938-.76-1.698-1.698-1.698h-.017c-.937 0-1.698.76-1.698 1.698v.002c0 .938.76 1.698 1.698 1.698h.017c.938 0 1.698-.76 1.698-1.698z"/></g></g></svg>